# xmcd
#
# Track frame offsets:
#	182
#	10282
#	23905
#	34557
#	44722
#	54820
#	66075
#	75057
#	85697
#	94965
#	108105
#	120842
#	133015
#	145807
#	157720
#	169342
#	177725
#	187067
#
# Disc length: 2640 seconds
#
# Revision: 0
# Processed by: cddbd v1.5.1PL2 Copyright (c) Steve Scherf et al.
# Submitted via: EasyCDDAExtractor 9.1.3.1
#
DISCID=dd0a4e12
DTITLE=Monty - Master Série
DYEAR=1995
DGENRE=Chanson
TTITLE0=Il a des remords
TTITLE1=Je me souviens de toi
TTITLE2=Même si je suis fou
TTITLE3=Un verre de whisky
TTITLE4=Si tu crois
TTITLE5=Ce n'est pas vrai
TTITLE6=Que me reste-t-il ?
TTITLE7=Si tu me dis
TTITLE8=Bientot les vacances
TTITLE9=La devise des copains
TTITLE10=On a changé ma ville
TTITLE11=Mais là-bas
TTITLE12=J'ai traversé l'enfer
TTITLE13=Ton jour de chance
TTITLE14=Le rythm and blues
TTITLE15=Ne le fais pas
TTITLE16=Oh! Quel beau jour
TTITLE17=Une fois
EXTD=
EXTT0=
EXTT1=
EXTT2=
EXTT3=
EXTT4=
EXTT5=
EXTT6=
EXTT7=
EXTT8=
EXTT9=
EXTT10=
EXTT11=
EXTT12=
EXTT13=
EXTT14=
EXTT15=
EXTT16=
EXTT17=
PLAYORDER=
